<?xml version="1.0" standalone="no"?>
<!DOCTYPE svg PUBLIC "-//W3C//DTD SVG 20010904//EN"
 "http://www.w3.org/TR/2001/REC-SVG-20010904/DTD/svg10.dtd">
<svg version="1.0" xmlns="http://www.w3.org/2000/svg"
 width="50.000000pt" height="50.000000pt" viewBox="0 0 50.000000 50.000000"
 preserveAspectRatio="xMidYMid meet">

<g transform="translate(0.000000,50.000000) scale(0.100000,-0.100000)"
fill="#000000" stroke="none">
<path d="M164 489 c-47 -13 -58 -34 -60 -108 -1 -47 4 -77 17 -103 31 -61 26
-74 -41 -108 -58 -29 -80 -53 -80 -84 0 -14 19 -16 132 -16 l132 0 34 -32 c28
-28 40 -33 82 -33 43 0 54 5 82 33 28 28 33 39 33 82 0 43 -5 54 -33 82 -28
28 -39 33 -81 33 -38 0 -55 -5 -74 -24 -45 -42 -62 -2 -29 67 18 37 27 129 16
164 -11 35 -83 61 -130 47z m265 -283 c47 -25 63 -83 37 -135 -35 -66 -137
-66 -172 0 -47 91 44 182 135 135z"/>
<path d="M370 155 c0 -20 -5 -25 -25 -25 -14 0 -25 -4 -25 -10 0 -5 11 -10 25
-10 20 0 25 -5 25 -25 0 -14 5 -25 10 -25 6 0 10 11 10 25 0 20 5 25 25 25 14
0 25 5 25 10 0 6 -11 10 -25 10 -20 0 -25 5 -25 25 0 14 -4 25 -10 25 -5 0
-10 -11 -10 -25z"/>
</g>
</svg>
